<svg id="SvgjsSvg1262" width="1146" height="801" xmlns="http://www.w3.org/2000/svg" version="1.1" xmlns:xlink="http://www.w3.org/1999/xlink" xmlns:svgjs="http://svgjs.com/svgjs"><defs id="SvgjsDefs1263"><marker id="SvgjsMarker1378" markerWidth="14" markerHeight="10" refX="10" refY="5" viewBox="0 0 14 10" orient="auto" markerUnits="userSpaceOnUse" stroke-dasharray="0,0"><path id="SvgjsPath1379" d="M0,0 L14,5 L0,10 L0,0" fill="#323232" stroke="#323232" stroke-width="1"></path></marker></defs><g id="SvgjsG1264" transform="translate(190,29)"><path id="SvgjsPath1265" d="M 0 4Q 0 0 4 0L 226 0Q 230 0 230 4L 230 91Q 230 95 226 95L 4 95Q 0 95 0 91Z" stroke="rgba(50,50,50,1)" stroke-width="2" fill-opacity="1" fill="#ffffff"></path><path id="SvgjsPath1266" d="M 0 30L 230 30" stroke="rgba(50,50,50,1)" stroke-width="2" fill="none"></path><path id="SvgjsPath1267" d="M 0 0L 230 0L 230 95L 0 95Z" stroke="none" fill="none"></path><g id="SvgjsG1268"><text id="SvgjsText1269" font-family="微软雅黑" text-anchor="middle" font-size="13px" width="210px" fill="#4caf50" font-weight="700" align="middle" lineHeight="125%" anchor="middle" family="微软雅黑" size="13px" weight="700" font-style="" opacity="1" y="4.375" transform="rotate(0)"><tspan id="SvgjsTspan1270" dy="16" x="115"><tspan id="SvgjsTspan1271" style="text-decoration:;">Enum:lept_type</tspan></tspan></text></g><g id="SvgjsG1272"><text id="SvgjsText1273" font-family="微软雅黑" text-anchor="start" font-size="13px" width="210px" fill="#4caf50" font-weight="400" align="middle" lineHeight="125%" anchor="start" family="微软雅黑" size="13px" weight="400" font-style="" opacity="1" y="27.375" transform="rotate(0)"><tspan id="SvgjsTspan1274" dy="16" x="10"><tspan id="SvgjsTspan1275" style="text-decoration:;">LEPT_NULL,</tspan></tspan><tspan id="SvgjsTspan1276" dy="16" x="10"><tspan id="SvgjsTspan1277" style="text-decoration:;">LEPT_NUMBER,</tspan></tspan><tspan id="SvgjsTspan1278" dy="16" x="10"><tspan id="SvgjsTspan1279" style="text-decoration:;">LEPT_TRUE,</tspan></tspan><tspan id="SvgjsTspan1280" dy="16" x="10"><tspan id="SvgjsTspan1281" style="text-decoration:;">LEPT_FALSE,...</tspan></tspan></text></g></g><g id="SvgjsG1282" transform="translate(190,202)"><path id="SvgjsPath1283" d="M 0 4Q 0 0 4 0L 226 0Q 230 0 230 4L 230 71Q 230 75 226 75L 4 75Q 0 75 0 71Z" stroke="rgba(50,50,50,1)" stroke-width="2" fill-opacity="1" fill="#ffffff"></path><path id="SvgjsPath1284" d="M 0 30L 230 30" stroke="rgba(50,50,50,1)" stroke-width="2" fill="none"></path><path id="SvgjsPath1285" d="M 0 0L 230 0L 230 75L 0 75Z" stroke="none" fill="none"></path><g id="SvgjsG1286"><text id="SvgjsText1287" font-family="微软雅黑" text-anchor="middle" font-size="13px" width="210px" fill="#2196f3" font-weight="700" align="middle" lineHeight="125%" anchor="middle" family="微软雅黑" size="13px" weight="700" font-style="" opacity="1" y="4.375" transform="rotate(0)"><tspan id="SvgjsTspan1288" dy="16" x="115"><tspan id="SvgjsTspan1289" style="text-decoration:;">Struct: lept_value</tspan></tspan></text></g><g id="SvgjsG1290"><text id="SvgjsText1291" font-family="微软雅黑" text-anchor="start" font-size="13px" width="210px" fill="#2196f3" font-weight="400" align="middle" lineHeight="125%" anchor="start" family="微软雅黑" size="13px" weight="400" font-style="" opacity="1" y="25.375" transform="rotate(0)"><tspan id="SvgjsTspan1292" dy="16" x="10"><tspan id="SvgjsTspan1293" style="text-decoration:;">double n,</tspan></tspan><tspan id="SvgjsTspan1294" dy="16" x="10"><tspan id="SvgjsTspan1295" style="text-decoration:;">lept_type type,</tspan></tspan><tspan id="SvgjsTspan1296" dy="16" x="10"><tspan id="SvgjsTspan1297" style="text-decoration:;"> </tspan></tspan></text></g></g><g id="SvgjsG1298" transform="translate(190,359)"><path id="SvgjsPath1299" d="M 0 4Q 0 0 4 0L 226 0Q 230 0 230 4L 230 56Q 230 60 226 60L 4 60Q 0 60 0 56Z" stroke="rgba(50,50,50,1)" stroke-width="2" fill-opacity="1" fill="#ffffff"></path><path id="SvgjsPath1300" d="M 0 30L 230 30" stroke="rgba(50,50,50,1)" stroke-width="2" fill="none"></path><path id="SvgjsPath1301" d="M 0 0L 230 0L 230 60L 0 60Z" stroke="none" fill="none"></path><g id="SvgjsG1302"><text id="SvgjsText1303" font-family="微软雅黑" text-anchor="middle" font-size="13px" width="210px" fill="#f57f17" font-weight="700" align="middle" lineHeight="125%" anchor="middle" family="微软雅黑" size="13px" weight="700" font-style="" opacity="1" y="4.375" transform="rotate(0)"><tspan id="SvgjsTspan1304" dy="16" x="115"><tspan id="SvgjsTspan1305" style="text-decoration:;">Struct: lept_context</tspan></tspan></text></g><g id="SvgjsG1306"><text id="SvgjsText1307" font-family="微软雅黑" text-anchor="start" font-size="13px" width="210px" fill="#f57f17" font-weight="400" align="middle" lineHeight="125%" anchor="start" family="微软雅黑" size="13px" weight="400" font-style="" opacity="1" y="34.375" transform="rotate(0)"><tspan id="SvgjsTspan1308" dy="16" x="10"><tspan id="SvgjsTspan1309" style="text-decoration:;">const char* json</tspan></tspan></text></g></g><g id="SvgjsG1310" transform="translate(584,25)"><path id="SvgjsPath1311" d="M 0 18Q 0 0 18 0L 82 0Q 100 0 100 18L 100 52Q 100 70 82 70L 18 70Q 0 70 0 52L 0 18Z" stroke="rgba(50,50,50,1)" stroke-width="2" fill-opacity="1" fill="#ffffff"></path><g id="SvgjsG1312"><text id="SvgjsText1313" font-family="微软雅黑" text-anchor="middle" font-size="13px" width="80px" fill="#00bcd4" font-weight="400" align="middle" lineHeight="125%" anchor="middle" family="微软雅黑" size="13px" weight="400" font-style="" opacity="1" y="15.875" transform="rotate(0)"><tspan id="SvgjsTspan1314" dy="16" x="50"><tspan id="SvgjsTspan1315" style="text-decoration:;">lept_parse_</tspan></tspan><tspan id="SvgjsTspan1316" dy="16" x="50"><tspan id="SvgjsTspan1317" style="text-decoration:;">whitespace</tspan></tspan></text></g></g><g id="SvgjsG1318" transform="translate(521.5,168)"><path id="SvgjsPath1319" d="M 0 18Q 0 0 18 0L 237 0Q 255 0 255 18L 255 57Q 255 75 237 75L 18 75Q 0 75 0 57L 0 18Z" stroke="rgba(50,50,50,1)" stroke-width="2" fill-opacity="1" fill="#ffffff"></path><g id="SvgjsG1320"><text id="SvgjsText1321" font-family="微软雅黑" text-anchor="middle" font-size="13px" width="235px" fill="#00bcd4" font-weight="400" align="middle" lineHeight="125%" anchor="middle" family="微软雅黑" size="13px" weight="400" font-style="" opacity="1" y="26.875" transform="rotate(0)"><tspan id="SvgjsTspan1322" dy="16" x="127.5"><tspan id="SvgjsTspan1323" style="text-decoration:;">lept_parse_literal('null' 'true' 'false')</tspan></tspan></text></g></g><g id="SvgjsG1324" transform="translate(521.5,315.5)"><path id="SvgjsPath1325" d="M 0 18Q 0 0 18 0L 237 0Q 255 0 255 18L 255 57Q 255 75 237 75L 18 75Q 0 75 0 57L 0 18Z" stroke="rgba(50,50,50,1)" stroke-width="2" fill-opacity="1" fill="#ffffff"></path><g id="SvgjsG1326"><text id="SvgjsText1327" font-family="微软雅黑" text-anchor="middle" font-size="13px" width="235px" fill="#00bcd4" font-weight="400" align="middle" lineHeight="125%" anchor="middle" family="微软雅黑" size="13px" weight="400" font-style="" opacity="1" y="26.875" transform="rotate(0)"><tspan id="SvgjsTspan1328" dy="16" x="127.5"><tspan id="SvgjsTspan1329" style="text-decoration:;">lept_parse_number</tspan></tspan></text></g></g><g id="SvgjsG1330" transform="translate(528.5,442)"><path id="SvgjsPath1331" d="M 0 18Q 0 0 18 0L 237 0Q 255 0 255 18L 255 57Q 255 75 237 75L 18 75Q 0 75 0 57L 0 18Z" stroke="rgba(50,50,50,1)" stroke-width="2" fill-opacity="1" fill="#ffffff"></path><g id="SvgjsG1332"><text id="SvgjsText1333" font-family="微软雅黑" text-anchor="middle" font-size="13px" width="235px" fill="#00bcd4" font-weight="400" align="middle" lineHeight="125%" anchor="middle" family="微软雅黑" size="13px" weight="400" font-style="" opacity="1" y="26.875" transform="rotate(0)"><tspan id="SvgjsTspan1334" dy="16" x="127.5"><tspan id="SvgjsTspan1335" style="text-decoration:;">lept_parse_string</tspan></tspan></text></g></g><g id="SvgjsG1336" transform="translate(528.5,564)"><path id="SvgjsPath1337" d="M 0 18Q 0 0 18 0L 237 0Q 255 0 255 18L 255 57Q 255 75 237 75L 18 75Q 0 75 0 57L 0 18Z" stroke="rgba(50,50,50,1)" stroke-width="2" fill-opacity="1" fill="#ffffff"></path><g id="SvgjsG1338"><text id="SvgjsText1339" font-family="微软雅黑" text-anchor="middle" font-size="13px" width="235px" fill="#00bcd4" font-weight="400" align="middle" lineHeight="125%" anchor="middle" family="微软雅黑" size="13px" weight="400" font-style="" opacity="1" y="26.875" transform="rotate(0)"><tspan id="SvgjsTspan1340" dy="16" x="127.5"><tspan id="SvgjsTspan1341" style="text-decoration:;">lept_parse_array</tspan></tspan></text></g></g><g id="SvgjsG1342" transform="translate(528.5,701)"><path id="SvgjsPath1343" d="M 0 18Q 0 0 18 0L 237 0Q 255 0 255 18L 255 57Q 255 75 237 75L 18 75Q 0 75 0 57L 0 18Z" stroke="rgba(50,50,50,1)" stroke-width="2" fill-opacity="1" fill="#ffffff"></path><g id="SvgjsG1344"><text id="SvgjsText1345" font-family="微软雅黑" text-anchor="middle" font-size="13px" width="235px" fill="#00bcd4" font-weight="400" align="middle" lineHeight="125%" anchor="middle" family="微软雅黑" size="13px" weight="400" font-style="" opacity="1" y="26.875" transform="rotate(0)"><tspan id="SvgjsTspan1346" dy="16" x="127.5"><tspan id="SvgjsTspan1347" style="text-decoration:;">lept_parse_object</tspan></tspan></text></g></g><g id="SvgjsG1348" transform="translate(25,346)"><path id="SvgjsPath1349" d="M 0 0L 118 0L 134 16L 134 127L 0 127L 0 0Z" stroke="none" fill-opacity="1" fill="#ffffaa"></path><path id="SvgjsPath1350" d="M 118 0L 118 16L 134 16Z" stroke="none" fill-opacity="1" fill="#cdcdcd"></path><path id="SvgjsPath1351" d="M 0 0L 118 0L 134 16L 134 127L 0 127L 0 0Z" stroke="none" fill="none"></path><g id="SvgjsG1352"><text id="SvgjsText1353" font-family="微软雅黑" text-anchor="middle" font-size="13px" width="114px" fill="#323232" font-weight="400" align="middle" lineHeight="125%" anchor="middle" family="微软雅黑" size="13px" weight="400" font-style="" opacity="1" y="28.375" transform="rotate(0)"><tspan id="SvgjsTspan1354" dy="16" x="67"><tspan id="SvgjsTspan1355" style="text-decoration:;">指向常量json的指</tspan></tspan><tspan id="SvgjsTspan1356" dy="16" x="67"><tspan id="SvgjsTspan1357" style="text-decoration:;">针，每当解析完一</tspan></tspan><tspan id="SvgjsTspan1358" dy="16" x="67"><tspan id="SvgjsTspan1359" style="text-decoration:;">个结构后，指向该</tspan></tspan><tspan id="SvgjsTspan1360" dy="16" x="67"><tspan id="SvgjsTspan1361" style="text-decoration:;">结构的下一个指针</tspan></tspan></text></g></g><g id="SvgjsG1362" transform="translate(877,289.5)"><path id="SvgjsPath1363" d="M 0 0L 228 0L 244 16L 244 127L 0 127L 0 0Z" stroke="none" fill-opacity="1" fill="#ffffaa"></path><path id="SvgjsPath1364" d="M 228 0L 228 16L 244 16Z" stroke="none" fill-opacity="1" fill="#cdcdcd"></path><path id="SvgjsPath1365" d="M 0 0L 228 0L 244 16L 244 127L 0 127L 0 0Z" stroke="none" fill="none"></path><g id="SvgjsG1366"><text id="SvgjsText1367" font-family="微软雅黑" text-anchor="middle" font-size="13px" width="224px" fill="#323232" font-weight="400" align="middle" lineHeight="125%" anchor="middle" family="微软雅黑" size="13px" weight="400" font-style="" opacity="1" y="28.375" transform="rotate(0)"><tspan id="SvgjsTspan1368" dy="16" x="122"><tspan id="SvgjsTspan1369" style="text-decoration:;">number = [ "-" ] int [ frac ] [ exp ]</tspan></tspan><tspan id="SvgjsTspan1370" dy="16" x="122"><tspan id="SvgjsTspan1371" style="text-decoration:;">int = "0" / digit1-9 *digit</tspan></tspan><tspan id="SvgjsTspan1372" dy="16" x="122"><tspan id="SvgjsTspan1373" style="text-decoration:;">frac = "." 1*digit</tspan></tspan><tspan id="SvgjsTspan1374" dy="16" x="122"><tspan id="SvgjsTspan1375" style="text-decoration:;">exp = ("e" / "E") ["-" / "+"] 1*digit</tspan></tspan></text></g></g><g id="SvgjsG1376"><path id="SvgjsPath1377" d="M777.5 353L827.5 353L827.5 353L874.4 353" stroke="#323232" stroke-width="2" fill="none" marker-end="url(#SvgjsMarker1378)"></path></g><g id="SvgjsG1380" transform="translate(892,132)"><path id="SvgjsPath1381" d="M 0 0L 176 0L 192 16L 192 110L 0 110L 0 0Z" stroke="none" fill-opacity="1" fill="#ffffaa"></path><path id="SvgjsPath1382" d="M 176 0L 176 16L 192 16Z" stroke="none" fill-opacity="1" fill="#cdcdcd"></path><path id="SvgjsPath1383" d="M 0 0L 176 0L 192 16L 192 110L 0 110L 0 0Z" stroke="none" fill="none"></path><g id="SvgjsG1384"><text id="SvgjsText1385" font-family="微软雅黑" text-anchor="middle" font-size="13px" width="172px" fill="#323232" font-weight="400" align="middle" lineHeight="125%" anchor="middle" family="微软雅黑" size="13px" weight="400" font-style="" opacity="1" y="35.875" transform="rotate(0)"><tspan id="SvgjsTspan1386" dy="16" x="96"><tspan id="SvgjsTspan1387" style="text-decoration:;">sizt_t i;</tspan></tspan><tspan id="SvgjsTspan1388" dy="16" x="96"><tspan id="SvgjsTspan1389" style="text-decoration:;">for (i = 0; literial[i+1];i++)</tspan></tspan></text></g></g></svg>